PathFileType	4	(X/Y/Z)	C:/Users/empri/Downloads/Take 2024-05-09 02.19.22 PM.trc
DataRate	CameraRate	NumFrames	NumMarkers	Units	OrigDataRate	OrigDataStartFrame	OrigNumFrames
240	240	30	9	mm	240	103	830
Frame#	Time	C7	CLAV	RELB	RFIN	RFRM	RSHO	RUPA	RWRA	RWRB
X1	Y1	Z1	X2	Y2	Z2	X3	Y3	Z3	X4	Y4	Z4	X5	Y5	Z5	X6	Y6	Z6	X7	Y7	Z7	X8	Y8	Z8	X9	Y9	Z9
103	0.429	-114.38	1542.27	-47.1395	44.7996	1365.28	-142.916	93.8625	1147.9	144.888	170.303	843.534	43.9697	98.7425	1023.6	162.967	35.3546	1483.41	66.9833	65.176	1324.65	137.813	123.207	919.717	51.4983	85.9368	889.802	135.557
104	0.433	-114.374	1542.27	-47.1351	44.799	1365.28	-142.914	93.8748	1147.9	144.899	170.312	843.523	43.9655	98.7484	1023.59	162.973	35.3629	1483.41	66.9833	65.1811	1324.65	137.821	123.214	919.71	51.498	85.9568	889.793	135.562
105	0.438	-114.361	1542.26	-47.1334	44.8018	1365.26	-142.919	93.8946	1147.89	144.895	170.339	843.525	43.9633	98.765	1023.58	162.963	35.3751	1483.39	66.9837	65.1963	1324.64	137.819	123.233	919.69	51.4985	85.9763	889.79	135.559
106	0.442	-114.357	1542.26	-47.1346	44.8154	1365.26	-142.926	93.9143	1147.88	144.887	170.366	843.523	43.9582	98.7838	1023.57	162.953	35.3892	1483.39	66.9739	65.2047	1324.63	137.815	123.265	919.682	51.4945	85.9896	889.774	135.542
107	0.446	-114.347	1542.26	-47.1284	44.8282	1365.27	-142.926	93.9299	1147.88	144.88	170.382	843.528	43.9613	98.801	1023.57	162.948	35.3997	1483.39	66.9749	65.215	1324.63	137.806	123.284	919.679	51.4902	86.0033	889.764	135.531
108	0.45	-114.338	1542.27	-47.1288	44.8366	1365.28	-142.924	93.9401	1147.89	144.877	170.402	843.53	43.9601	98.8164	1023.58	162.953	35.4108	1483.38	66.9706	65.2264	1324.64	137.802	123.297	919.688	51.4913	86.0187	889.752	135.524
109	0.454	-114.326	1542.29	-47.1114	44.8439	1365.28	-142.917	93.9485	1147.89	144.883	170.415	843.536	43.9559	98.8276	1023.59	162.958	35.4187	1483.38	66.9705	65.2337	1324.64	137.804	123.302	919.701	51.4867	86.0381	889.757	135.527
110	0.458	-114.316	1542.29	-47.1034	44.8501	1365.29	-142.919	93.959	1147.89	144.895	170.426	843.534	43.9614	98.8356	1023.58	162.963	35.4287	1483.38	66.974	65.2459	1324.63	137.806	123.309	919.689	51.4933	86.049	889.76	135.536
111	0.462	-114.295	1542.28	-47.0909	44.866	1365.29	-142.919	93.9758	1147.88	144.891	170.437	843.536	43.9632	98.8498	1023.58	162.967	35.437	1483.38	66.9766	65.249	1324.62	137.814	123.325	919.671	51.5038	86.0649	889.762	135.546
112	0.467	-114.299	1542.29	-47.0884	44.8875	1365.3	-142.926	93.9923	1147.88	144.888	170.456	843.536	43.964	98.8632	1023.57	162.96	35.4547	1483.38	66.977	65.2605	1324.62	137.812	123.355	919.68	51.5069	86.1254	889.735	135.555
113	0.471	-114.281	1542.29	-47.0743	44.8978	1365.31	-142.932	94.004	1147.88	144.895	170.463	843.551	43.9729	98.8747	1023.57	162.957	35.467	1483.38	66.9804	65.2683	1324.62	137.806	123.371	919.694	51.4998	86.1353	889.743	135.559
114	0.475	-114.272	1542.29	-47.0704	44.9109	1365.31	-142.934	94.0106	1147.88	144.893	170.476	843.554	43.968	98.9007	1023.56	162.961	35.4771	1483.38	66.9766	65.2763	1324.6	137.796	123.381	919.689	51.5031	86.1025	889.78	135.562
115	0.479	-114.263	1542.29	-47.07	44.9088	1365.31	-142.935	94.013	1147.88	144.896	170.496	843.54	43.9706	98.9073	1023.56	162.965	35.484	1483.38	66.9833	65.2846	1324.61	137.81	123.389	919.681	51.5052	86.1602	889.762	135.582
116	0.483	-114.249	1542.29	-47.0665	44.9021	1365.29	-142.934	94.0281	1147.88	144.89	170.5	843.524	43.9539	98.9182	1023.56	162.972	35.4898	1483.37	66.9824	65.2946	1324.61	137.811	123.389	919.663	51.5116	86.1798	889.765	135.581
117	0.488	-114.24	1542.29	-47.0668	44.907	1365.28	-142.937	94.0418	1147.87	144.886	170.529	843.511	43.9521	98.9381	1023.56	162.966	35.5011	1483.36	66.979	65.3075	1324.6	137.809	123.398	919.644	51.5059	86.1942	889.75	135.572
118	0.492	-114.235	1542.29	-47.0666	44.9062	1365.27	-142.935	94.0504	1147.85	144.881	170.541	843.502	43.9546	98.9495	1023.54	162.957	35.5065	1483.34	66.9734	65.3136	1324.6	137.802	123.422	919.639	51.4961	86.2021	889.738	135.566
119	0.496	-114.23	1542.28	-47.0704	44.9089	1365.27	-142.938	94.0735	1147.84	144.867	170.555	843.498	43.9524	98.9632	1023.53	162.955	35.517	1483.34	66.9749	65.3212	1324.59	137.804	123.437	919.629	51.4845	86.2084	889.714	135.55
120	0.5	-114.22	1542.28	-47.0751	44.9131	1365.26	-142.941	94.0855	1147.84	144.868	170.572	843.488	43.9507	98.9748	1023.52	162.952	35.5226	1483.33	66.9773	65.3308	1324.59	137.809	123.454	919.63	51.4842	86.2251	889.696	135.535
121	0.504	-114.209	1542.28	-47.0766	44.9136	1365.24	-142.936	94.0959	1147.84	144.874	170.582	843.476	43.9446	98.9825	1023.52	162.958	35.5342	1483.33	66.9797	65.3377	1324.59	137.805	123.464	919.624	51.4821	86.2348	889.694	135.532
122	0.508	-114.197	1542.28	-47.0745	44.9152	1365.24	-142.93	94.1084	1147.84	144.875	170.587	843.461	43.9455	98.9966	1023.52	162.958	35.5422	1483.33	66.9852	65.3471	1324.58	137.813	123.471	919.615	51.4909	86.2453	889.694	135.534
123	0.513	-114.19	1542.26	-47.0828	44.9172	1365.23	-142.922	94.1297	1147.83	144.874	170.604	843.45	43.9491	99.0089	1023.51	162.958	35.5587	1483.32	66.9894	65.3557	1324.57	137.817	123.493	919.606	51.4973	86.2568	889.683	135.536
124	0.517	-114.182	1542.26	-47.0822	44.9298	1365.23	-142.923	94.1455	1147.82	144.872	170.619	843.443	43.9525	99.0169	1023.5	162.952	35.5685	1483.32	66.9983	65.3685	1324.56	137.816	123.514	919.61	51.4945	86.2602	889.676	135.527
125	0.521	-114.177	1542.26	-47.0771	44.9421	1365.24	-142.925	94.1597	1147.82	144.874	170.633	843.442	43.9523	99.0245	1023.49	162.944	35.5801	1483.32	66.9999	65.3726	1324.56	137.813	123.535	919.615	51.4891	86.2675	889.666	135.52
126	0.525	-114.165	1542.26	-47.0768	44.9617	1365.24	-142.925	94.1695	1147.81	144.87	170.648	843.437	43.9536	99.0298	1023.48	162.948	35.5953	1483.32	67.0079	65.3798	1324.56	137.816	123.545	919.61	51.4907	86.2789	889.652	135.523
127	0.529	-114.145	1542.28	-47.048	44.9592	1365.23	-142.904	94.1844	1147.8	144.873	170.659	843.43	43.9681	99.0425	1023.47	162.953	35.602	1483.31	67.019	65.397	1324.54	137.82	123.557	919.586	51.4928	86.2847	889.659	135.527
128	0.533	-114.125	1542.28	-47.0311	44.9669	1365.22	-142.894	94.1939	1147.8	144.873	170.669	843.416	43.9803	99.0535	1023.46	162.955	35.6143	1483.3	67.0277	65.4094	1324.54	137.834	123.556	919.567	51.4995	86.2988	889.645	135.53
129	0.538	-114.113	1542.27	-47.0251	44.9752	1365.21	-142.899	94.2111	1147.77	144.865	170.685	843.399	43.9772	99.0666	1023.45	162.955	35.6374	1483.28	67.0432	65.4137	1324.53	137.837	123.576	919.542	51.4929	86.3087	889.63	135.53
130	0.542	-114.106	1542.27	-47.0166	44.9822	1365.2	-142.894	94.2221	1147.76	144.852	170.702	843.389	43.9751	99.0738	1023.44	162.94	35.6469	1483.27	67.0409	65.4187	1324.51	137.832	123.599	919.542	51.4827	86.319	889.614	135.523
131	0.546	-114.092	1542.26	-47.014	44.9951	1365.2	-142.9	94.2416	1147.75	144.845	170.722	843.365	43.9768	99.0855	1023.42	162.932	35.6643	1483.26	67.0442	65.4271	1324.5	137.823	123.619	919.527	51.4768	86.3224	889.609	135.52
132	0.55	-114.074	1542.27	-47.0078	45.0025	1365.19	-142.896	94.2575	1147.73	144.837	170.739	843.354	43.974	99.1018	1023.41	162.925	35.6793	1483.26	67.0499	65.44	1324.5	137.82	123.644	919.52	51.4773	86.3292	889.609	135.522
